<svg xmlns="http://www.w3.org/2000/svg" version="1.0" width="512.000000" height="512.000000" preserveAspectRatio="xMidYMid meet" style=""><rect id="backgroundrect" width="100%" height="100%" x="0" y="0" fill="none" stroke="none"/>


<g class="currentLayer" style=""><title>Layer 1</title><g transform="translate(0,512) scale(0.10000000149011612,-0.10000000149011612) " fill="#ffffff" stroke="none" id="svg_1" class="selected" fill-opacity="1">
<path d="M1200 5113 c-71 -7 -235 -45 -304 -70 -323 -116 -600 -362 -753 -668 -54 -107 -86 -200 -115 -326 l-23 -104 0 -1390 0 -1390 23 -104 c119 -529 515 -927 1035 -1040 96 -21 111 -21 1502 -21 1391 0 1406 0 1502 21 517 112 920 515 1032 1032 21 96 21 111 21 1502 0 1391 0 1406 -21 1502 -97 448 -416 817 -849 980 -36 14 -112 37 -170 51 l-105 26 -1370 2 c-753 0 -1386 -1 -1405 -3z m446 -1775 l735 -383 -3 -89 -3 -88 -735 -353 -735 -353 -3 146 c-1 80 -1 151 2 157 2 6 245 119 540 250 295 131 536 242 536 245 0 4 -243 127 -540 273 l-540 267 0 155 c0 85 3 155 6 155 3 0 336 -172 740 -382z m2632 -1850 l-3 -103 -727 -3 -728 -2 0 105 0 105 730 0 731 0 -3 -102z" id="svg_2" fill="#ffffff" fill-opacity="1"/>
</g></g></svg>